<svg xmlns="http://www.w3.org/2000/svg" xmlns:xlink="http://www.w3.org/1999/xlink" width="855" height="310" version="1.1" viewBox="0 0 855 310"><title>雷池简介（用户-服务器）</title><defs><rect id="path-1" width="230" height="230" x="0" y="0" rx="12"/><filter id="filter-2" width="160.9%" height="160.9%" x="-30.4%" y="-21.7%" filterUnits="objectBoundingBox"><feOffset dx="0" dy="20" in="SourceAlpha" result="shadowOffsetOuter1"/><feGaussianBlur in="shadowOffsetOuter1" result="shadowBlurOuter1" stdDeviation="20"/><feColorMatrix in="shadowBlurOuter1" type="matrix" values="0 0 0 0 0.568627451 0 0 0 0 0.619607843 0 0 0 0 0.670588235 0 0 0 0.2 0"/></filter><rect id="path-3" width="230" height="230" x="545" y="0" rx="12"/><filter id="filter-4" width="160.9%" height="160.9%" x="-30.4%" y="-21.7%" filterUnits="objectBoundingBox"><feOffset dx="0" dy="20" in="SourceAlpha" result="shadowOffsetOuter1"/><feGaussianBlur in="shadowOffsetOuter1" result="shadowBlurOuter1" stdDeviation="20"/><feColorMatrix in="shadowBlurOuter1" type="matrix" values="0 0 0 0 0.568627451 0 0 0 0 0.619607843 0 0 0 0 0.670588235 0 0 0 0.2 0"/></filter><rect id="path-5" width="122" height="70" x="48" y="65" rx="12"/><filter id="filter-6" width="130.3%" height="152.9%" x="-15.2%" y="-16.4%" filterUnits="objectBoundingBox"><feOffset dx="0" dy="7" in="SourceAlpha" result="shadowOffsetOuter1"/><feGaussianBlur in="shadowOffsetOuter1" result="shadowBlurOuter1" stdDeviation="5"/><feColorMatrix in="shadowBlurOuter1" type="matrix" values="0 0 0 0 0.568627451 0 0 0 0 0.619607843 0 0 0 0 0.670588235 0 0 0 0.3 0"/></filter><rect id="path-7" width="70" height="70" x="634" y="74" rx="12"/><filter id="filter-8" width="152.9%" height="152.9%" x="-26.4%" y="-16.4%" filterUnits="objectBoundingBox"><feOffset dx="0" dy="7" in="SourceAlpha" result="shadowOffsetOuter1"/><feGaussianBlur in="shadowOffsetOuter1" result="shadowBlurOuter1" stdDeviation="5"/><feColorMatrix in="shadowBlurOuter1" type="matrix" values="0 0 0 0 0.568627451 0 0 0 0 0.619607843 0 0 0 0 0.670588235 0 0 0 0.3 0"/></filter><path id="path-9" d="M16,8 L8,8 C8,10.209139 9.790861,12 12,12 C14.209139,12 16,10.209139 16,8 Z M6,18 L18,18 C21.3137085,18 24,20.6862915 24,24 L24,26 L0,26 L0,24 C0,20.6862915 2.6862915,18 6,18 Z M12,16 C7.581722,16 4,12.418278 4,8 C4,3.581722 7.581722,0 12,0 C16.418278,0 20,3.581722 20,8 C20,12.418278 16.418278,16 12,16 Z"/><filter id="filter-10" width="158.3%" height="153.8%" x="-29.2%" y="-19.2%" filterUnits="objectBoundingBox"><feOffset dx="0" dy="2" in="SourceAlpha" result="shadowOffsetOuter1"/><feGaussianBlur in="shadowOffsetOuter1" result="shadowBlurOuter1" stdDeviation="2"/><feColorMatrix in="shadowBlurOuter1" type="matrix" values="0 0 0 0 0.0588235294 0 0 0 0 0.776470588 0 0 0 0 0.760784314 0 0 0 0.301710009 0"/></filter><path id="path-11" d="M16,8 L8,8 C8,10.209139 9.790861,12 12,12 C14.209139,12 16,10.209139 16,8 Z M6,18 L18,18 C21.3137085,18 24,20.6862915 24,24 L24,26 L0,26 L0,24 C0,20.6862915 2.6862915,18 6,18 Z M12,16 C7.581722,16 4,12.418278 4,8 C4,3.581722 7.581722,0 12,0 C16.418278,0 20,3.581722 20,8 C20,12.418278 16.418278,16 12,16 Z"/><filter id="filter-12" width="158.3%" height="153.8%" x="-29.2%" y="-19.2%" filterUnits="objectBoundingBox"><feOffset dx="0" dy="2" in="SourceAlpha" result="shadowOffsetOuter1"/><feGaussianBlur in="shadowOffsetOuter1" result="shadowBlurOuter1" stdDeviation="2"/><feColorMatrix in="shadowBlurOuter1" type="matrix" values="0 0 0 0 1 0 0 0 0 0.352941176 0 0 0 0 0.368627451 0 0 0 0.301710009 0"/></filter><path id="path-13" d="M16,8 L8,8 C8,10.209139 9.790861,12 12,12 C14.209139,12 16,10.209139 16,8 Z M6,18 L18,18 C21.3137085,18 24,20.6862915 24,24 L24,26 L0,26 L0,24 C0,20.6862915 2.6862915,18 6,18 Z M12,16 C7.581722,16 4,12.418278 4,8 C4,3.581722 7.581722,0 12,0 C16.418278,0 20,3.581722 20,8 C20,12.418278 16.418278,16 12,16 Z"/><filter id="filter-14" width="158.3%" height="153.8%" x="-29.2%" y="-19.2%" filterUnits="objectBoundingBox"><feOffset dx="0" dy="2" in="SourceAlpha" result="shadowOffsetOuter1"/><feGaussianBlur in="shadowOffsetOuter1" result="shadowBlurOuter1" stdDeviation="2"/><feColorMatrix in="shadowBlurOuter1" type="matrix" values="0 0 0 0 0.258823529 0 0 0 0 0.560784314 0 0 0 0 0.976470588 0 0 0 0.301710009 0"/></filter><path id="path-15" d="M12,2.18129358 C17.4128396,2.18129358 21.8187064,6.58427507 21.8187064,12 C21.8187064,17.4157249 17.4128396,21.8158211 12,21.8158211 C6.58716038,21.8158211 2.18129358,17.4128396 2.18129358,12 C2.18129358,6.58716038 6.58716038,2.18129358 12,2.18129358 M12,0 C5.3724453,0 0,5.3724453 0,12 C0,18.6275547 5.3724453,24 12,24 C18.6275547,24 24,18.6275547 24,12 C24,5.3724453 18.6275547,0 12,0 Z"/><filter id="filter-16" width="158.3%" height="158.3%" x="-29.2%" y="-20.8%" filterUnits="objectBoundingBox"><feOffset dx="0" dy="2" in="SourceAlpha" result="shadowOffsetOuter1"/><feGaussianBlur in="shadowOffsetOuter1" result="shadowBlurOuter1" stdDeviation="2"/><feColorMatrix in="shadowBlurOuter1" type="matrix" values="0 0 0 0 0.258823529 0 0 0 0 0.560784314 0 0 0 0 0.976470588 0 0 0 0.3 0"/></filter><path id="path-17" d="M12,2.18129358 C13.5205578,2.18129358 15.8172638,6.09665785 15.8172638,12 C15.8172638,17.9033421 13.5205578,21.8158211 12,21.8158211 C10.4794422,21.8158211 8.18273623,17.9004568 8.18273623,12 C8.18273623,6.09954316 10.4794422,2.18129358 12,2.18129358 M12,0 C8.6876653,0 6.00144265,5.3724453 6.00144265,12 C6.00144265,18.6275547 8.6876653,24 12,24 C15.3123347,24 17.9985573,18.6275547 17.9985573,12 C17.9985573,5.3724453 15.3123347,0 12,0 Z"/><filter id="filter-18" width="216.7%" height="158.3%" x="-58.3%" y="-20.8%" filterUnits="objectBoundingBox"><feOffset dx="0" dy="2" in="SourceAlpha" result="shadowOffsetOuter1"/><feGaussianBlur in="shadowOffsetOuter1" result="shadowBlurOuter1" stdDeviation="2"/><feColorMatrix in="shadowBlurOuter1" type="matrix" values="0 0 0 0 0.258823529 0 0 0 0 0.560784314 0 0 0 0 0.976470588 0 0 0 0.3 0"/></filter><path id="path-19" d="M1.09064679,7.63452753 L22.9093532,7.63452753 L22.9093532,9.81582111 L1.09064679,9.81582111 L1.09064679,7.63452753 Z M1.09064679,14.1812936 L22.9093532,14.1812936 L22.9093532,16.3625872 L1.09064679,16.3625872 L1.09064679,14.1812936 Z"/><filter id="filter-20" width="164.2%" height="260.4%" x="-32.1%" y="-57.3%" filterUnits="objectBoundingBox"><feOffset dx="0" dy="2" in="SourceAlpha" result="shadowOffsetOuter1"/><feGaussianBlur in="shadowOffsetOuter1" result="shadowBlurOuter1" stdDeviation="2"/><feColorMatrix in="shadowBlurOuter1" type="matrix" values="0 0 0 0 0.258823529 0 0 0 0 0.560784314 0 0 0 0 0.976470588 0 0 0 0.3 0"/></filter></defs><g id="官网设计" fill="none" fill-rule="evenodd" stroke="none" stroke-width="1"><g id="用户-服务器" transform="translate(-119.000000, -57.000000)"><g id="雷池简介（用户-服务器）" transform="translate(159.000000, 77.000000)"><g id="矩形"><use fill="#000" fill-opacity="1" filter="url(#filter-2)" xlink:href="#path-1"/><use fill="#FFF" fill-rule="evenodd" xlink:href="#path-1"/></g><g id="矩形备份"><use fill="#000" fill-opacity="1" filter="url(#filter-4)" xlink:href="#path-3"/><use fill="#FFF" fill-rule="evenodd" xlink:href="#path-3"/></g><circle id="椭圆形" cx="230" cy="115" r="6.5" stroke="#0FC6C2" stroke-width="3"/><path id="路径-104" fill="#0FC6C2" fill-rule="nonzero" d="M529,108 L543,115 L529,122 L529,116 L238,116 L238,114 L529,114 L529,108 Z"/><text id="用户" fill="#000" font-family="PingFangSC-Semibold, PingFang SC" font-size="20" font-weight="500" line-spacing="28"><tspan x="95" y="207">用户</tspan></text><text id="网站服务器" fill="#000" font-family="PingFangSC-Semibold, PingFang SC" font-size="20" font-weight="500" line-spacing="28"><tspan x="610" y="207">网站服务器</tspan></text><rect id="矩形备份-2" width="96" height="96" x="86" y="57" fill="#0FC6C2" fill-opacity=".2" rx="12"/><rect id="矩形备份-4" width="65" height="30" x="616" y="66" fill="#0FC6C2" fill-opacity=".2" rx="4"/><rect id="矩形备份-5" width="65" height="30" x="616" y="102" fill="#0FC6C2" fill-opacity=".2" rx="4"/><g id="矩形"><use fill="#000" fill-opacity="1" filter="url(#filter-6)" xlink:href="#path-5"/><use fill="#FFF" fill-rule="evenodd" xlink:href="#path-5"/></g><g id="矩形备份-3"><use fill="#000" fill-opacity="1" filter="url(#filter-8)" xlink:href="#path-7"/><use fill="#FFF" fill-rule="evenodd" xlink:href="#path-7"/></g><g id="发布人" fill-rule="nonzero" transform="translate(96.000000, 87.000000)"><g id="形状"><use fill="#000" fill-opacity="1" filter="url(#filter-10)" xlink:href="#path-9"/><use fill="#0FC6C2" xlink:href="#path-9"/></g></g><g id="发布人备份" fill-rule="nonzero" transform="translate(61.000000, 87.000000)"><g id="形状"><use fill="#000" fill-opacity="1" filter="url(#filter-12)" xlink:href="#path-11"/><use fill="#FF5A5E" xlink:href="#path-11"/></g></g><g id="发布人备份-2" fill-rule="nonzero" transform="translate(133.000000, 87.000000)"><g id="形状"><use fill="#000" fill-opacity="1" filter="url(#filter-14)" xlink:href="#path-13"/><use fill="#428FF9" xlink:href="#path-13"/></g></g><line id="路径-105" x1="85" x2="96" y1="103" y2="103" stroke="#919EAB" stroke-linecap="round" stroke-width=".5"/><path id="路径-106" stroke="#0FC6C2" stroke-opacity=".2" stroke-width="4" d="M669,98.0773361 L669,85.5 C669,82.7385763 666.761424,80.5 664,80.5 L633.5,80.5 L633.5,80.5"/><line id="路径-105备份" x1="120" x2="131" y1="103" y2="103" stroke="#919EAB" stroke-linecap="round" stroke-width=".5"/><circle id="椭圆形" cx="634" cy="81" r="5" fill="#0FC6C2"/><circle id="椭圆形备份-2881" cx="634" cy="117" r="5" fill="#0FC6C2"/><circle id="椭圆形备份-2880" cx="634" cy="117" r="5" fill="#FF5A5E"/><polygon id="路径-107" fill="#FF5A5E" fill-opacity=".2" fill-rule="nonzero" points="663.376 115 660.63 119 633.999 119 633.999 115" transform="translate(648.687356, 117.000000) scale(1, -1) translate(-648.687356, -117.000000)"/><g id="网站_常规-(1)" fill-rule="nonzero" transform="translate(657.000000, 97.000000)"><g id="形状"><use fill="#000" fill-opacity="1" filter="url(#filter-16)" xlink:href="#path-15"/><use fill="#428FF9" xlink:href="#path-15"/></g><g id="形状"><use fill="#000" fill-opacity="1" filter="url(#filter-18)" xlink:href="#path-17"/><use fill="#428FF9" xlink:href="#path-17"/></g><g id="形状"><use fill="#000" fill-opacity="1" filter="url(#filter-20)" xlink:href="#path-19"/><use fill="#428FF9" xlink:href="#path-19"/></g></g></g></g></g></svg>